<?xml version="1.0" encoding="UTF-8" standalone="no"?>
<!-- Created with Inkscape (http://www.inkscape.org/) -->

<svg
   xmlns:dc="http://purl.org/dc/elements/1.1/"
   xmlns:cc="http://creativecommons.org/ns#"
   xmlns:rdf="http://www.w3.org/1999/02/22-rdf-syntax-ns#"
   xmlns:svg="http://www.w3.org/2000/svg"
   xmlns="http://www.w3.org/2000/svg"
   xmlns:sodipodi="http://sodipodi.sourceforge.net/DTD/sodipodi-0.dtd"
   xmlns:inkscape="http://www.inkscape.org/namespaces/inkscape"
   width="48"
   height="48"
   id="svg3879"
   version="1.1"
   inkscape:version="0.48.4 r9939"
   sodipodi:docname="black-windy-bg-blue-pencil.svg"
   inkscape:export-filename="/home/ross/Documents/UAlbertaHackathon2015/assets/logo/black-windy-bg-blue-pencil.png"
   inkscape:export-xdpi="90"
   inkscape:export-ydpi="90">
  <defs
     id="defs3881" />
  <sodipodi:namedview
     id="base"
     pagecolor="#ffffff"
     bordercolor="#666666"
     borderopacity="1.0"
     inkscape:pageopacity="0.0"
     inkscape:pageshadow="2"
     inkscape:zoom="10.24"
     inkscape:cx="24.328768"
     inkscape:cy="26.549765"
     inkscape:document-units="px"
     inkscape:current-layer="layer1"
     showgrid="false"
     inkscape:window-width="1086"
     inkscape:window-height="716"
     inkscape:window-x="280"
     inkscape:window-y="24"
     inkscape:window-maximized="0" />
  <metadata
     id="metadata3884">
    <rdf:RDF>
      <cc:Work
         rdf:about="">
        <dc:format>image/svg+xml</dc:format>
        <dc:type
           rdf:resource="http://purl.org/dc/dcmitype/StillImage" />
        <dc:title></dc:title>
      </cc:Work>
    </rdf:RDF>
  </metadata>
  <g
     inkscape:label="Layer 1"
     inkscape:groupmode="layer"
     id="layer1"
     transform="translate(0,-1004.3622)">
    <rect
       style="fill:#ffffff;fill-opacity:1"
       id="rect3887"
       width="650.53827"
       height="440.42651"
       x="92.934029"
       y="59.211056"
       transform="translate(0,308.2677)" />
    <rect
       style="fill:#ffffff;fill-opacity:1"
       id="rect3891"
       width="813.09583"
       height="484.89307"
       x="65.736946"
       y="47.069401"
       transform="translate(0,308.2677)" />
    <path
       style="fill:none;stroke:#000000;stroke-width:1px;stroke-linecap:butt;stroke-linejoin:miter;stroke-opacity:1"
       d="m 39.901026,0.01775402 c 0,0 -1.515229,1.01015258 -0.883884,2.90418858 0.631345,1.894036 3.788072,3.1567267 3.156727,5.3033009 -0.631346,2.1465745 -3.661803,5.1770315 -3.156727,8.2074895 0.505076,3.030458 7.702413,7.323606 6.692261,13.258252 -1.010153,5.934646 -7.449875,10.732871 -5.555839,11.743023 1.894036,1.010153 3.409265,1.262691 2.272843,2.399113 -1.136422,1.136421 -2.272843,4.545686 -2.272843,4.545686"
       id="path3907"
       inkscape:connector-curvature="0"
       transform="translate(0,1004.3622)" />
    <path
       style="fill:#1a1a1a;fill-opacity:1"
       d="m -0.25086741,1028.3452 -0.0835257,-24.7242 5.33399981,0.2113 c 2.9336856,0.1162 6.1110193,0.2361 7.0607163,0.2666 l 1.72663,0.058 -0.580139,0.8366 c -0.563315,0.8124 -0.556133,0.8534 0.247781,1.4103 0.455359,0.3155 2.099594,1.1331 3.653854,1.8168 4.821412,2.1212 7.559041,3.8372 8.395549,5.2627 0.378228,0.6446 0.351846,0.8744 -0.171366,1.4925 -0.887481,1.0488 -1.843147,1.6302 -6.362654,3.8706 -5.123433,2.5398 -5.905058,3.1017 -5.696855,4.0952 0.179506,0.8568 0.283761,0.9159 6.183615,3.5141 3.896656,1.716 4.993067,2.3178 4.994488,2.7418 4.63e-4,0.132 -0.915249,1.0437 -2.03487,2.0262 -2.874301,2.5221 -3.948453,3.8704 -4.194805,5.2659 -0.196794,1.1146 -0.142315,1.247 0.798362,1.9389 0.65757,0.4837 1.689091,0.9516 2.958502,1.342 3.731913,1.1477 5.495766,1.8532 5.730052,2.2921 0.375329,0.7028 -0.807764,1.7642 -5.119695,4.5924 -4.568658,2.9967 -6.52536,4.6834 -6.89311,5.942 l -0.247825,0.8482 -7.8075971,-0.1874 -7.80759346,-0.1876 -0.0835257,-24.7242 z"
       id="path4431"
       inkscape:connector-curvature="0" />
    <path
       style="fill:#1a1a1a;fill-opacity:1"
       d="m 27.116169,1053.6543 c -0.01027,-0.5121 3.347685,-3.3262 5.090897,-4.2667 1.843736,-0.9945 2.084298,-1.5666 0.857277,-2.0384 -0.419243,-0.1613 -2.191618,-0.5445 -3.938616,-0.8517 -1.746996,-0.3072 -3.179551,-0.6201 -3.183458,-0.6955 -0.01141,-0.2202 2.000108,-1.5126 5.037746,-3.2364 10.909862,-6.1915 12.895238,-9.7266 7.657398,-13.6349 -1.497206,-1.1171 -4.307532,-2.5517 -8.986362,-4.5866 -4.375846,-1.9034 -6.166141,-2.9027 -6.456111,-3.6034 -0.498822,-1.2055 0.624951,-2.5637 4.274334,-5.1657 3.411594,-2.4326 4.224427,-3.25 4.014349,-4.0366 -0.23389,-0.8758 -1.191081,-1.4879 -4.008018,-2.5637 -3.632018,-1.3869 -4.327289,-1.7232 -4.745406,-2.2955 -0.470221,-0.6434 -0.03439,-1.3275 1.177843,-1.8488 0.714581,-0.3074 0.813464,-0.4196 0.492723,-0.5602 -0.343476,-0.1504 -0.0012,-0.1777 2.376863,-0.1895 1.527975,-0.01 7.569502,-0.089 13.425619,-0.1796 l 10.647487,-0.1657 0.02122,0.9887 c 0.01168,0.5439 -0.507432,11.3218 -1.153577,23.9509 -0.646142,12.6292 -1.167229,23.3263 -1.157968,23.7715 l 0.01684,0.8094 -10.72956,0.2479 c -5.90126,0.1363 -10.730452,0.2037 -10.731504,0.1512 z"
       id="path4433"
       inkscape:connector-curvature="0" />
    <path
       style="fill:#1a1a1a;fill-opacity:1"
       d=""
       id="path4437"
       inkscape:connector-curvature="0"
       transform="translate(0,1004.3622)" />
    <path
       style="fill:#1a1a1a;fill-opacity:1"
       d=""
       id="path4439"
       inkscape:connector-curvature="0"
       transform="translate(0,1004.3622)" />
    <path
       style="fill:#00739e;fill-opacity:1;stroke:#000000;stroke-width:1px;stroke-linecap:butt;stroke-linejoin:miter;stroke-opacity:1"
       d="m 39.395949,1008.6731 -32.198612,24.4962 -6.0609154,12.6269 15.0260194,-0.2526 31.693536,-26.0114 z"
       id="path4946"
       inkscape:connector-curvature="0"
       sodipodi:nodetypes="cccccc" />
    <path
       style="fill:none;stroke:#000000;stroke-width:0.5;stroke-linecap:butt;stroke-linejoin:miter;stroke-opacity:1"
       d="m 7.8286822,28.302025 c 0,0 7.7024128,6.187185 8.0812208,12.626907"
       id="path4974"
       inkscape:connector-curvature="0"
       transform="translate(0,1004.3622)"
       sodipodi:nodetypes="cc" />
  </g>
</svg>
